<svg xmlns="http://www.w3.org/2000/svg" width="460" height="460">
  <style>
    .st0{
		fill-rule:evenodd;
		clip-rule:evenodd;
		fill:#ee4036
	}
	
	<!-- como es id lleva numeral -->
	<!-- busco las coordenadas absolutas en este código -->
	#m4 {
		fill: olive;
	
		transform-origin: 316.104px 113.705px;
		transition: transform 0.5s;
	}
	 
	#m4:hover {
		fill:red;
		transform: rotate(15deg);
	}
	
	#m12 {
		animation-duration: 0.8s;
		animation-fill-mode: foward;
		animation-name: caer;
		transform-origin: 176.837px 256.591px;
		animation-timing-function: ease-in;
	}
	
	@keyframes caer{
		to {
			transform: translateY(156px);
		}
	}
	
	
  </style>
  <path d="M444.624 215.339c-6.189-3.584-13.092-3.193-17.977.875-5.719 4.76-9.601 4.84-15.721.092 5.084-4.503 10.258-8.813 15.083-13.488 2.1-2.036 3.82-4.652 5.124-7.294 4.415-8.942 4.223-18.398 2.89-28.755-6.046 3.159-9.762 7.808-13.63 12.295-7.105 8.241-10.33 17.108-4.316 27.217-2.324 4.465-5.651 7.509-10.146 8.256-7.033 1.169-14.187 1.598-20.967 2.306.563-6.126 2.013-12.313 1.47-18.322-.743-8.253.889-13.523 9.633-16.335 7.103-2.285 11.516-8.415 14.696-15.445-4.422.185-8.6.646-12.459 2.009-5.54 1.957-9.628 5.453-10.293 11.989-.198 1.938-1.808 3.732-2.935 5.907-2.329-2.634-4.122-4.729-5.988-6.755-2.965-3.217-3.755-8.853-1.723-12.743 2.305-4.409 7.15-6.708 11.954-5.671 12.68 2.736 28.49-6.815 32.527-19.864-8.994-.813-17.665.256-25.639 4.353-3.061 1.572-6.543 4.117-7.772 7.074-2.42 5.821-7.337 7.763-12.544 11.164l-.366-6.87c9.622-8.785 12.9-28.367 6.503-38.781-4.741 6.588-9.976 12.689-12.117 20.597-1.437 5.3-2.226 10.837 1.518 15.49 3.665 4.557 2.177 9.159 1.908 14.367-14.845-9.119-21.282-9.646-27.252-2.223 6.734 8.3 14.598 4.148 22.847 1.616l5.184 6.132-.732 1.008c-9.403-2.818-18.224-1.949-26.327 3.405 4.839.274 5.136.292 6.046 2.205h2.928c1.509-1.817 2.266-3.21 3.373-3.604 9.053-3.221 20.711 2.777 22.9 12.087 3.098 13.165.718 28.417-13.267 36.7-3.774 2.236-7.52 4.764-11.616 6.167-9.239 3.164-18.652 5.836-28.063 8.469-9.907 2.771-19.894 5.263-30.223 7.975.811-2.417 1.51-4.647 2.303-6.846 3.209-8.895 7.836-11.444 17.256-9.549 12.908 2.598 25.48-3.568 30.037-14.694-7.925.438-15.872.868-23.819 1.319-5.53.314-9.823 2.719-13.192 7.204-1.79 2.383-4.271 4.247-6.44 6.344-.423-8.502-1.398-15.918-5.968-22.477-.319-.458-.414-1.125-.465-1.707-.744-8.5-2.763-16.786-2.523-25.497.356-12.931-7.814-20.78-22.059-21.979 5.984 7.897 6.742 16.778 7.642 25.692.451 4.464 3.162 8.089 7.349 9.528 5.24 1.8 6.161 5.476 6.264 11.452-8.664-7.373-18.49-8.97-28.579-10.134-3.07-7.5-7.17-13.885-15.646-16.742-.615 4.964.707 9.021 2.79 12.875 4.159 7.691 12.577 4.499 18.765 7.563-2.256.712-4.53 1.165-6.822 1.272-2.99.14-6.017-.228-8.991.031-8.706.759-14.652 6.046-16.327 14.89 3.485-.2 6.813-.258 10.112-.608 6.132-.652 10.486-4.461 14.809-8.434 5.078-4.665 9.316-5.563 14.874-3.628-2.447 2.222-4.9 4.441-7.132 6.462l2.385 4.147c.926.358 1.872.689 2.849.956-.09-3.334-.681-6.348 2.694-7.952 3.261-1.55 6.507-2.906 10.225-.715 4.569 2.692 7.694 6.377 8.952 11.487 2.868 11.66-3.157 28.516-13.076 35.438-13.242 9.239-26.736 18.115-40.189 27.192-4.181-9.135-8.894-18.623-10.2-29.295-1.336-10.907-2.918-21.8-3.735-32.748-1.209-16.224-.195-32.391 3.248-48.329 1.689-7.815 4.113-9.201 12.501-7.756 6.086 8.406 13.471 15.327 23.818 19.037.048-3.428-.281-6.552-1.272-9.449-3.318-9.707-10.688-14.132-20.813-13.042-2.883.311-5.83.048-8.972.048 3.439-5.177 5.458-6.74 10.205-7.895 9.447-2.298 18.405-5.634 25.301-12.844 4.015-4.195 7.017-8.989 6.917-15.513-6.758-.466-12.315 1.687-17.749 4.099-9.377 4.163-16.202 10.629-19.361 20.813-.902 2.912-3.698 5.236-5.625 7.83l-1.246-.889c5.394-14.607 11.997-28.485 23.985-39.162 12.533-11.16 26.97-16.056 43.728-13.437 7.468 1.167 9.315 3.294 8.164 10.403 1.81.127 3.588.018 5.442-.11v-11.284c4.912-2.069 7.549-1.327 11.503 3.746 7.307 9.376 20.419 12.739 31.391 8.054-5.16-9.139-14.071-14.104-23.867-11.999-5.132 1.103-8.233-.76-12.246-4.083 2.275-.788 3.854-1.549 5.517-1.871 5.496-1.065 8.969-4.475 10.531-9.575 2.236-7.297 2.481-14.757.769-22.718-9.368 4.487-14.296 11.146-14.458 21.286-.142 8.618-4.696 13.686-12.685 13.46-5.478-.154-10.916-1.686-16.884-2.687 1.613-3.107 2.883-5.549 4.041-7.777 10.609-3.759 14.518-9.296 14.15-20.36-.192-5.788-.746-11.574-1.395-17.332-.242-2.152-1.223-4.221-1.866-6.328l-1.45.007c-4.404 7.565-9.005 15.025-13.141 22.734-2.553 4.758-2.46 9.964-.938 15.181 2.208 7.575-.669 12.521-8.391 14.835-3.254.974-6.538 1.862-9.734 2.998-11.025 3.923-20.933 9.727-28.878 17.907-4.751-8.651-9.372-16.96-13.881-25.329-1.608-2.983-3.562-5.981-4.246-9.208-.753-3.56-1.154-7.682-.09-11.049 3.127-9.903 17.641-16.892 27.624-14.045 2.228.635 3.516 1.719 3.809 3.666.953.06 1.919.109 2.886.185l4.416-3.333-15.159-3.396c4.643-3.392 9.888-5.178 14.201-8.264 4.672-3.341 7.004-8.466 6.18-14.608-10.515 1.101-16.813 6.441-19.174 16.06-.961 3.914-3.748 6.511-7.255 7.263-8.041 1.722-15.01 5.181-20.956 11.026-2.197-5.037-4.981-9.551-6.141-14.451-2.844-12.004-12.571-20.973-25.058-22.066-2.957 14.349 6.046 24.59 23.906 26.817 6.007 8.679 1.022 17.988 1.669 27.677-10.178-3.078-19.663-2.445-29.107-.149-8.44 2.052-11.885-.027-14.168-8.647 9.512-12.158 8.537-33.233-2.319-41.998-5.009 8.444-8.218 17.29-8.474 27.125-.132 4.991 1.254 9.361 4.413 13.337 3.52 4.429 6.672 9.148 9.987 13.747-9.154 5.733-13.362 4.93-19.198-3.246-1.16-1.625-2.5-3.119-3.739-4.688-7.225-9.147-23.732-10.968-34.383-6.028 3.128 3.588 6.263 6.875 9.048 10.436 8.089 10.342 18.374 13.311 30.939 10.08 3.616-.931 7.525-.725 11.298-1.04l.189 1.19-8.771 7.279.649 1.087h5.148v2.46h3.741V98.85c18.989-16.69 41.561-16.568 54.216.978-3.721-.332-6.93-.139-9.844-.969-8.437-2.404-16.782 1.336-20.613 9.661 8.651 4.611 17.534 2.376 25.313-6.994 2.554.686 6.102.718 8.394 2.43 5.979 4.468 7.964 18 4.697 24.832-3.703 7.746-6.959 15.704-10.426 23.562-.683 1.544-1.441 3.056-2.163 4.582.427-13.235 2.949-26.671-9.921-36.231-5.46 8.271-4.762 22.85 2.337 30.557 4.924 5.348 4.962 10.819 3.865 17.102-1.682 9.638-3.297 19.29-4.72 28.969-.969 6.604-1.561 13.265-2.376 20.355-5.168-2.849-9.656-5.437-14.247-7.824-8-4.158-8.784-5.945-6.025-14.709 12.838-6.216 20.422-14.679 21.039-23.873-6.813 2.213-13.254 4.757-18.75 9.247-3.896 3.182-6.419 6.955-5.857 12.408.379 3.685.072 7.44.072 11.291-7.334-1.155-7.388-1.209-8.211-6.794-.174-1.186-.319-2.38-.581-3.547-2.33-10.367-.514-18.563 9.838-24.281 9.233-5.101 12.457-16.04 8.919-25.163-12.469 4.507-19.518 14.542-18.802 24.857.256 3.675-1.716 7.505-2.856 11.985-3.217-4.509-5.882-7.955-8.227-11.608-2.349-3.659-4.324-7.555-6.559-11.29-6.517-10.887-16.998-14.749-29.453-16.997 3.458 7.366 6.321 13.897 9.572 20.229 2.155 4.2 5.924 6.365 10.72 6.604 2.397.119 4.9-.062 7.153.589 2.164.624 4.65 1.682 5.989 3.354 6.438 8.041 8.692 17.583 9.65 28.188-1.682-.544-2.614-.82-3.532-1.146-12.263-4.366-24.804-6.268-37.74-3.923-7.265 1.316-14.442 3.128-21.725 4.31-3.041.494-6.448.589-9.361-.259-19.282-5.616-27.461-20.651-22.581-40.469 4.149-16.849 19.78-20.154 30.737-17.246 2.772.735 3.547 2.237 3.438 4.479 2.582.004 4.966-.85 6.676-2.561-2.422-1.756-4.783-3.739-7.49-4.543-15.071-4.475-28.722.049-35.947 14.512-1.236 2.473-2.16 5.101-3.228 7.658-.045-14.922 4.503-27.603 17.614-35.77 1.722-1.072 4.413-.94 6.623-.81 5.336.317 10.728 1.78 15.964 1.304 10.94-.995 20.109-5.755 26.381-15.341-5.952-2.822-16.755-3.842-24.862-2.418-8.104 1.423-15.17 4.536-20.612 11.153-2.142 2.605-5.515 4.197-8.328 6.251l-1.25-1.186c1.919-2.567 3.478-5.544 5.824-7.634 10.499-9.352 11.064-31.812.4-42.188-6.232 8.419-10.447 17.528-11.124 27.952-.239 3.699-.153 7.963 1.453 11.119 2.71 5.322 1.312 9.538-1.317 13.976-.915 1.546-1.91 3.047-2.822 4.594-7.905 13.4-11.515 27.58-7.809 43.091.298 1.252.433 2.545.683 4.054-10.581-3.531-14.269-8.632-13.839-19.081.359-8.735-.32-17.262-5.055-24.872-1.706-2.74-4.16-5.013-6.458-7.716-7.412 12.013-5.279 27.473 4.029 37.245 3.729 3.914 6.677 8.57 10.311 13.318-6.318 1.049-9.408-2.42-12.678-5.689-2.802-2.804-5.527-5.808-8.77-8.013-3.002-2.042-6.544-3.794-10.483-2.027.912 9.945 6.07 14.631 15.684 14.261 2.849-.11 5.487-.249 7.343 3.231-2.383.956-4.54 1.9-6.75 2.691-3.947 1.41-8.004 2.538-11.873 4.129-5.625 2.315-10.733 5.534-13.988 10.858-1.456 2.381-3.58 4.919-1.802 8.122 10.901-1.224 21.004-7.496 29.016-17.753 1.197-1.534 2.524-3.229 4.185-4.093 8.534-4.443 22.865-1.252 29.025 6.319 4.849 5.958 10.3 11.17 17.262 14.624 1.103.546 2.116 1.266 3.5 2.104-5.198 3.386-9.883 6.439-14.567 9.495-.669.437-1.307.925-1.995 1.333-5.603 3.33-12.877 2.218-17.164-2.583-5.798-6.494-13.226-10.359-21.489-12.42-3.193-.796-6.75-.13-10.604-.13 2.998 4.667 5.394 8.564 7.954 12.348 5.574 8.239 13.005 10.963 22.875 8.915 2.546-.527 5.293-.079 7.949-.079l.451 1.411c-4.654 2.481-9.175 5.274-14.001 7.353-4.291 1.847-8.271 1.033-12.235-2.136-3.153-2.521-7.236-4.159-11.16-5.378-7.536-2.342-14.233 1.522-21.394 3.282 6.516 10.356 21.06 14.789 31.279 10.346 4.172-1.814 8.815-2.547 13.245-3.771l.514 1.303c-2.915 3.486-5.965 6.868-8.708 10.484-2.963 3.904-6.982 5.218-11.554 5.163-2.374-.029-4.739-.649-7.111-.984-7.935-1.123-14.336 1.621-18.021 7.785 2.548 3.253 6.182 4.923 9.981 4.104 4.356-.939 8.721-2.662 12.556-4.93 3.369-1.991 6.512-3.306 11.762-2.773-2.961 3.891-5.126 7.17-7.724 10.06-5.851 6.508-10.656 13.569-12.123 22.356-1.378 8.257.66 15.586 6.968 22.565 2.729-3.362 5.345-5.882 7.117-8.897 5.13-8.74 7.063-18.489 5.493-28.319-1.218-7.635.278-13.662 5.328-19.206 1.877-2.061 3.162-4.687 5.129-6.639 5.798-5.755 11.629-11.501 17.817-16.822 2.223-1.91 5.496-2.598 8.288-3.844l.714 1.066-2.196 5.162 5.037 2.319c-.445.549-.893 1.098-1.339 1.647 1.484.322 2.941.499 4.352.51.486-4.69-.09-9.437 1.899-12.528 6.836-10.624 17.79-15.784 30.638-20.541-1.075 4.038-1.554 6.739-2.509 9.259-2.852 7.516-2.584 14.381 3.402 20.438 6.737-6.741 7.349-12.165 2.554-21.183-2.846-5.351-.92-10.155 4.684-10.58 10.189-.771 20.349-.437 30.268 2.709 0 .777.042 1.357-.006 1.93-1.205 14.295 3.907 23.171 16.833 29.316 1.696.806 3.288 1.831 5.141 2.874-7.114 4.881-14.695 4.95-20.955.671-2.307-1.576-4.66-3.156-7.18-4.328-8.817-4.098-17.351-2.937-25.877 1.375 7.101 10.442 20.195 14.286 32.73 10.355 4.021-1.261 8.365-1.499 12.56-2.205.189.594.381 1.189.57 1.784l-11.807 5.621c2.177 1.263 4.397 2.33 4.1 4.559 1.054.631 2.204.627 3.368.343v-4.381c4.136-2.929 7.946-5.502 11.619-8.262 3.867-2.908 8.084-4.509 13.321-4.56-8.662 8.902-3.228 28.03 13.016 34.621.868-12.105-3.028-21.588-13.863-27.245.964-4.625 3.566-6.17 7.503-5.911 3.994.262 7.164 2.145 8.178 5.952 2.975 11.166 5.905 22.364 8.203 33.681 2.1 10.326 3.5 20.805 4.939 31.253 1.423 10.35 1.907 20.756-.902 30.974-1.134 4.119-2.876 8.071-4.354 12.133-5.235-4.135-9.42-8.221-14.311-11.115-6.735-3.986-7.898-10.187-7.988-16.867-.046-3.431 1.918-5.958 5.052-8.207 3.417-2.45 6.453-6.056 8.393-9.81 4.287-8.293 3.285-17.48 2.801-26.432-.084-1.565-1.438-3.061-2.566-5.304-13.289 12.38-17.694 27.134-16.259 44.421-2.929-2.438-5.442-4.722-7.146-7.5-5.42-8.834-18.384-14.45-29.313-12.113 1.519 6.216 5.824 9.945 11.28 12.159 4.398 1.785 9.16 2.697 13.794 3.866 4.727 1.192 8.74 3.354 10.094 8.34.973 3.581 1.263 7.35 1.79 10.603-13.38-3.416-26.48-6.681-39.516-10.177-1.991-.534-3.697-2.133-5.257-3.072-.583-17.432-12.032-34.01-23.37-33.275 1.76 7.799 2.936 15.695 5.49 23.117 1.167 3.39 4.612 6.55 7.809 8.56 5.127 3.221 10.911 5.397 17.118 8.351-4.527 1.646-8.295 2.908-11.98 4.377-7.868 3.137-13.08 2.313-17.652-4.529-5.217-7.811-12.107-8.778-20.428-7.435-6.418 1.035-12.938 1.431-19.35 2.104 3.006 4.576 7.696 8.493 13.665 9.514 6.404 1.095 13.082 1.169 19.595.833 4.738-.243 8.459.596 11.542 4.189-6.398 6.95-8.32 7.822-16.758 7.854-1.599.005-3.205.039-4.795.196-12.732 1.258-25.841 12.173-28.754 24.41 3.518-.44 6.85-.729 10.136-1.294 11.926-2.049 22.385-5.904 29.521-17.112 4.211-6.616 11.888-10.227 19.969-13.514v5.634a7.963 7.963 0 0 0 3.727.352c-.963-4.771.901-7.78 4.799-9.354 2.542-1.026 5.365-1.711 8.1-1.854 24.73-1.306 44.143 12.924 49.431 37.166 1.76 8.074 1.609 16.686 1.45 25.034-.323 16.953-1.245 33.895-1.955 51.728h-3.573c12.083 2.189 24.656 1.996 36.472-1.243-3.188-10.329-4.705-24.525-3.934-35.968.687-10.193 8.558-17.105 18.677-16.397 6.88.481 8.99 2.646 9.343 9.581.494 9.716 9.1 17.435 19.156 17.177 1.721-11.68-4.945-19.541-12.374-20.906-4.918-.903-7.004-3.801-9.062-8.427 3.627-1.297 6.858-3.188 10.242-3.528 11.524-1.158 23.671-11.151 26.973-23.367-3.918 0-7.712-.401-11.394.076-10.854 1.405-17.483 7.117-19.709 16.449-1.563 6.546-5.451 9.834-12.278 9.686-3.316-.073-6.611-1.048-9.989-1.626-.94.674-1.876 1.429-2.894 2.049-1.108.674-2.291 1.222-4.094 2.166.591-3.278.984-5.813 1.509-8.323 4.446-21.234 7.011-42.566 4.188-64.298-1.144-8.798 7.635-15.04 15.702-11.253 3.194 1.5 6.004 3.821 8.66 5.553v5.561c1.098.356 2.265.574 3.481.691.269-1.599.541-3.226.762-4.534 2.876-.44 4.998-.766 7.119-1.092l.012-1.312c-5.102-2.547-12.074-1.024-15.967-6.776 13.413-1.54 21.285 3.327 25.355 15.474 2.644 7.89 11.807 13.429 20.996 12.436-1.886-8.834-6.855-14.988-15.563-17.19-4.987-1.263-7.408-4.513-9.616-8.851 3.582.28 6.862 1.359 10.218 2.078 2.695.576 5.528 1.206 8.221.96 9.662-.88 17.288-5.895 23.71-12.825 2.723-2.935 6.39-5.396 6.609-9.632l-21.852 2.551c-1.19.14-2.39.243-3.571.44-8.272 1.383-15.785 3.802-17.536 13.678-9.478 1.944-17.764-2.799-26.806-2.36 1.826-4.581 4.149-7.02 8.634-8.099 12.679-3.053 20.524-17.385 19.841-26.44-7.333 2.245-13.819 5.894-20.091 10.074-5.347 3.562-7.484 8.476-7.434 14.751.036 4.524-2.701 8.197-6.882 9.34-4.872 1.329-9.837 2.316-15.706 3.67 1.817-4.963 2.773-9.793 5.177-13.743 7.46-12.251 17.303-22.427 29.502-30.049 10.222-6.386 21.558-10.376 33.056-13.747 10.293-3.016 20.593-1.915 30.737 1.095 2.433.722 4.299 1.994 4.186 5.04-.201 5.404-5.06 9.828-10.448 10.082-5.141.243-10.431.546-15.334 1.947-10.495 2.997-15.562 11.163-18.874 20.768 5.058-1.052 9.485-2.204 13.987-2.856 6.699-.972 12.553-3.467 17.452-8.207 4.52-4.374 9.139-8.646 14.836-14.022-.602 2.792-.745 4.529-1.372 6.067-.729 1.784-2.567 3.332-2.723 5.089-.399 4.507-.135 9.073-.138 13.616 9.523-2.306 13.391-11.567 8.376-19.714-1.575-2.56-2.639-5.437-3.876-8.042l5.09-2.944c8.629 7.348 15.376 15.664 16.653 27.945 1.38.13 2.696.08 3.977-.275-.375.006-.749.014-1.127.014v-10.351l9.348-4.234c.833 1.771 1.316 2.641 1.667 3.563 2.821 7.436 8.326 11.659 16.042 12.755 5.327.756 10.766 1.369 16.114 1.137 3.94-.172 8.34.598 11.981-2.139-4.155-3.508-8.348-6.567-11.966-10.198-8.534-8.563-18.346-11.448-30.058-8.085-3.267.938-6.747 1.134-10.13 1.67-.477-.321-.952-.643-1.429-.963 11.469-14.266 9.913-28.028.062-42.446-1.528 4.97-2.615 8.985-3.998 12.896-3.125 8.845-2.727 16.877 5.725 23.794l-6.902 7.577c-7.783-13.002-16.741-22.972-31.051-27.788 2.643-1.126 4.715-1.767 6.542-2.83 7.743-4.506 15.979-8.424 22.932-13.946 5.757-4.575 11.87-7.347 18.749-8.639 6.874-1.292 13.688-.342 19.501 3.845 3.169 2.283 6.764 4.57 7.686 9.146.947-.045 1.91-.185 2.843-.271a32.259 32.259 0 0 0-1.837-.715l6.847-2.303-9.933-5.084c4.845-.972 9.373-.416 13.697-1.125 4.507-.741 8.418-3.313 11.476-7.016zm-254.685 18.46c-1.115-11.603-7.507-20.474-16.797-27.852 13.709.583 40.598 18.746 46.095 31.713-9.982-3.658-20.034 2.205-29.298-3.861z" fill-rule="evenodd" clip-rule="evenodd" fill="#00a14b" id="arbol"/>
  <path class="st0" d="M277.642 323.643c-1.576-.261-2.743-.509-3.926-.639-8.853-.964-16.288 5.229-15.494 13.949.455 4.983 2.439 10.077 4.792 14.568 2.451 4.679 7.029 6.89 12.608 6.476 2.578-.19 5.212-.271 7.77.033 5.426.644 9.645-1.596 12.237-5.923 2.207-3.68 3.893-7.926 4.708-12.136 2.155-11.133-6.671-18.918-17.524-15.908-.304.085-.716-.223-1.819-.604l.13-.775c-1.217-.117-2.384-.335-3.481-.691l-.001 1.65z" id="m1"/>
  <path class="st0" d="M377.865 287.348c.012.111.031.218.042.33-2.591-.364-4.317-.648-6.056-.843-7.03-.78-17.709 4.669-19.919 10.777-3.882 10.735-2.874 21.201 2.9 31.152 5.016 8.643 13.029 11.129 22.359 11.261 6.972.099 13.926.997 19.477-4.978 6.846-7.372 10.721-15.932 10.922-25.914.248-12.407-7.764-21.084-19.89-22.022-1.925-.149-3.871-.069-5.859-.039-1.28.356-2.596.407-3.976.276z" id="m2"/>
  <path class="st0" d="M421.557 231.953c-13.611-1.273-20.104 5.939-17.345 18.773 1.835 8.548 9.169 15.549 16.599 15.849 11.148.449 17.236-3.873 20.246-14.408.326-1.147.554-2.329.742-3.507 1.741-10.879-4.245-17.274-15.262-16.432-.566.043-1.166-.229-2.166-.647-.933.086-1.896.226-2.843.271.009.034.021.065.029.101z" id="m3"/>
  <path class="st0" d="M316.104 113.705c-.076.462-.162.942-.262 1.447-.98-.134-1.97-.254-2.955-.405-12.436-1.899-21.682 4.121-24.473 16.477-2.678 11.848.153 22.641 7.788 32.026 3.823 4.703 8.885 7.303 15.148 7.284 3.31-.009 6.758-.263 9.896.551 6.242 1.62 11.11-.666 15.28-4.693 8.151-7.872 12.444-17.733 12.363-29.001-.114-15.947-12.031-24.654-24.79-22.41-.715.126-1.471.017-2.554.017v-1.403c-1.853.128-3.631.238-5.441.11z" id="m4"/>
  <path class="st0" d="M353.288 181.546c-1.708-.14-3.246-.411-4.775-.366-6.436.19-11.893 4.618-11.799 10.455.068 4.499 1.001 9.136 2.427 13.42 1.378 4.14 4.591 7.063 9.344 7.32 3.184.173 6.386.138 9.578.038 4.236-.133 7.833-1.817 10.287-5.302 3.932-5.58 4.732-11.758 2.828-18.276-1.209-4.14-4.169-6.211-8.348-6.621-1.921-.188-3.859-.198-7.401-.365.215-.24.412-.473.601-.7h-2.928l.186.397z" id="m5"/>
  <path class="st0" d="M266.684 64.124c-.888-.162-1.601-.314-2.319-.42-7.704-1.131-13.31 2.896-14.69 10.543-2.011 11.151 6.009 20.629 17.399 20.563 1.399-.008 2.802.038 4.202.012 9.656-.174 15.142-7.257 14.469-18.671-.402-6.833-3.525-10.971-9.097-12.236.101.062.204.114.303.18-.099-.066-.202-.118-.303-.18-1.924-.437-4.134-.536-6.631-.279-.2.021-.461-.55-.972-1.197l.571-.432c-.967-.076-1.933-.125-2.886-.185.101.663.088 1.424-.046 2.302z" id="m6"/>
  <path class="st0" d="M122.882 146.098c-.022.474-.071.97-.164 1.512-1.769-.173-3.318-.401-4.876-.464-6.787-.277-12.246 3.501-13.844 10.005-1.936 7.871-.305 15.144 4.995 21.312 5.853 6.811 23.182 7.941 29.854 1.916 6.122-5.527 8.155-12.625 6.659-20.674-1.145-6.147-4.395-10.571-10.619-12.563-1.393-.446-2.513-1.708-3.795-2.539a35.139 35.139 0 0 1-1.534-1.064c-1.71 1.709-4.095 2.563-6.676 2.559z" id="m7"/>
  <path class="st0" d="M150.469 345.961v1.309c-1.442.166-2.606.296-3.768.435-6.409.762-10.092 4.456-10.733 10.844-.657 6.553 2.651 11.417 6.686 16.088 3.629 4.202 7.829 5.92 13.313 4.486 1.281-.335 2.781-.093 4.133.149 4.203.75 7.06-1.132 8.807-4.678 2.874-5.841 4.255-12.089 3.632-18.6-.651-6.792-5.884-10.836-13.02-10.339-1.714.12-3.413.47-5.311.741-.006-.029-.006-.055-.012-.084a7.949 7.949 0 0 1-3.727-.351z" id="m8"/>
  <path class="st0" d="M177.759 106.984c-1.516-.502-2.629-.98-3.792-1.239-7.132-1.586-15.291 1.601-18.371 7.128-6.471 11.612 1.86 31.466 14.914 34.008 5.755 1.122 12.246.978 17.918-.482 13.535-3.485 20.717-18.073 16.379-31.318-1.975-6.027-6.247-9.307-12.395-9.618-3.493-.178-7.041.726-10.914 1.184v-.967h-3.741c.002.427.002.853.002 1.304z" id="m9"/>
  <path class="st0" d="M276.238 216.265c-2.505-.164-3.884-.365-5.259-.327-9.451.259-14.887 7.02-12.297 16.09 1.287 4.511 3.522 8.928 6.189 12.794 1.325 1.921 4.512 2.737 7.014 3.602 1.421.491 3.245-.267 4.74.119 10.013 2.588 19.333-6.624 19.493-18.984.099-7.73-4.108-12.139-11.383-12.712a14.083 14.083 0 0 1-4.376-.076c-.563.002-1.137.005-1.747.005-.002-.132-.006-.262-.01-.394a29.119 29.119 0 0 1-2.849-.956c.16.274.311.538.485.839z" id="m10"/>
  <path class="st0" d="M95.188 236.864c-.722.097-1.462.348-2.166.267-13.616-1.565-24.434 6.081-26.123 19.509-1.952 15.535 3.131 28.89 15.215 39.022 2.731 2.29 6.751 4.023 10.264 4.189 6.439.305 13.01-.322 19.393-1.377 4.621-.764 8.835-2.56 12.343-6.575 8.805-10.083 11.497-21.662 10.152-34.49-1.531-14.614-14.277-23.548-28.806-20.465-1.487.315-3.014.448-5.739.839.031-.239.046-.479.071-.72a21.355 21.355 0 0 1-4.352-.51l-.252.311z" id="m11"/>
  <path class="st0" d="M176.837 256.591c-.067.506-.262 1.071-.62 1.713-1.346-.335-2.501-.656-3.67-.91-6.422-1.4-12.15 1.333-14.691 7.355-4.169 9.869-2.007 22.034 8.173 28 6.353 3.723 15.505 4.377 22.821 1.811 10.009-3.512 14.125-13.283 12.211-24.046-1.456-8.188-6.031-12.111-14.415-12.35-1.59-.046-3.183-.019-4.768-.124-.541-.036-1.064-.375-1.674-.604v-.501c-1.163.283-2.313.287-3.367-.344z" id="m12"/>
</svg>
